<svg width="124" height="40" viewBox="0 0 124 40" fill="none" xmlns="http://www.w3.org/2000/svg">
<path d="M8.95043 39.151C7.30788 39.6204 6.27743 38.6507 6.64888 36.9851L10.8074 18.3373C11.1789 16.6717 12.8116 14.9409 14.4541 14.4714L37.0753 8.00611C38.7178 7.53666 39.7483 8.50635 39.3768 10.172L35.2183 28.8197C34.8468 30.4854 33.2142 32.2162 31.5716 32.6857L8.95043 39.151Z" fill="#1E1510"/>
<path d="M2.97411 31.9947C1.33156 32.4642 0.301116 31.4945 0.672562 29.8288L4.83112 11.1811C5.20256 9.51544 6.83523 7.78461 8.47779 7.31515L31.099 0.849861C32.7415 0.380407 33.772 1.3501 33.4005 3.01574L29.242 21.6635C28.8705 23.3291 27.2378 25.06 25.5953 25.5294L2.97411 31.9947Z" fill="#FA6440"/>
<path d="M52.9393 28.512H49.4399V11.782H59.0456V14.6875H52.9393V18.9988H58.6229V21.9044H52.9393V28.512Z" fill="#1E1510"/>
<path d="M65.6539 15.7184V28.512H62.1545V15.7184H65.6539ZM63.916 10.7041C64.4326 10.7041 64.8789 10.8291 65.2547 11.079C65.6304 11.3133 65.8183 11.7585 65.8183 12.4146C65.8183 13.0551 65.6304 13.5003 65.2547 13.7502C64.8789 14.0001 64.4326 14.1251 63.916 14.1251C63.3836 14.1251 62.9296 14.0001 62.5538 13.7502C62.1937 13.5003 62.0136 13.0551 62.0136 12.4146C62.0136 11.7585 62.1937 11.3133 62.5538 11.079C62.9296 10.8291 63.3836 10.7041 63.916 10.7041Z" fill="#1E1510"/>
<path d="M73.4802 28.7463C72.0553 28.7463 70.8889 28.1918 69.9808 27.0827C69.0883 25.958 68.6421 24.31 68.6421 22.1387C68.6421 19.9517 69.0961 18.2959 70.0043 17.1712C70.9124 16.0465 72.1023 15.4841 73.5741 15.4841C74.1847 15.4841 74.7249 15.57 75.1946 15.7419C75.6643 15.8981 76.0636 16.1168 76.3924 16.398C76.7368 16.6791 77.0265 16.9994 77.2614 17.3586H77.3788C77.3318 17.1087 77.277 16.7494 77.2144 16.2808C77.1518 15.7965 77.1204 15.3045 77.1204 14.8046V10.7041H80.6198V28.512H77.9424L77.2614 26.8484H77.1204C76.9012 27.1921 76.6194 27.5123 76.275 27.8091C75.9462 28.0903 75.5547 28.3168 75.1007 28.4886C74.6466 28.6604 74.1064 28.7463 73.4802 28.7463ZM74.7014 25.958C75.6722 25.958 76.3532 25.6768 76.7447 25.1145C77.1361 24.5365 77.3396 23.6773 77.3553 22.537V22.1621C77.3553 20.9124 77.1596 19.9595 76.7682 19.3035C76.3924 18.6474 75.6878 18.3193 74.6544 18.3193C73.8872 18.3193 73.2844 18.6552 72.846 19.3269C72.4076 19.983 72.1884 20.9359 72.1884 22.1855C72.1884 23.4352 72.4076 24.3803 72.846 25.0207C73.2844 25.6456 73.9029 25.958 74.7014 25.958Z" fill="#1E1510"/>
<path d="M89.6703 15.4841C90.8602 15.4841 91.8779 15.7106 92.7234 16.1636C93.5846 16.6166 94.25 17.2727 94.7197 18.1319C95.1894 18.991 95.4243 20.0455 95.4243 21.2951V22.9822H87.1573C87.1886 23.9663 87.4783 24.7396 88.0263 25.3019C88.5899 25.8643 89.3649 26.1455 90.3514 26.1455C91.1812 26.1455 91.9327 26.0674 92.606 25.9111C93.2792 25.7393 93.976 25.4816 94.6962 25.1379V27.8325C94.0699 28.1449 93.4045 28.3714 92.6999 28.512C92.011 28.6682 91.1734 28.7463 90.187 28.7463C88.9031 28.7463 87.7679 28.512 86.7815 28.0434C85.7951 27.5592 85.0201 26.8328 84.4564 25.8643C83.8928 24.8958 83.6109 23.6773 83.6109 22.209C83.6109 20.7093 83.8614 19.4675 84.3625 18.4834C84.8792 17.4836 85.5916 16.7338 86.4997 16.2339C87.4078 15.7341 88.4647 15.4841 89.6703 15.4841ZM89.6937 17.9679C89.0205 17.9679 88.4568 18.1866 88.0028 18.6239C87.5644 19.0613 87.306 19.7408 87.2277 20.6625H92.1363C92.1363 20.147 92.0423 19.6862 91.8544 19.28C91.6822 18.8739 91.416 18.5537 91.0559 18.3193C90.6958 18.085 90.2418 17.9679 89.6937 17.9679Z" fill="#1E1510"/>
<path d="M101.868 28.512H98.3686V10.7041H101.868V28.512Z" fill="#1E1510"/>
<path d="M109.131 15.7184V28.512H105.631V15.7184H109.131ZM107.393 10.7041C107.909 10.7041 108.356 10.8291 108.731 11.079C109.107 11.3133 109.295 11.7585 109.295 12.4146C109.295 13.0551 109.107 13.5003 108.731 13.7502C108.356 14.0001 107.909 14.1251 107.393 14.1251C106.86 14.1251 106.406 14.0001 106.03 13.7502C105.67 13.5003 105.49 13.0551 105.49 12.4146C105.49 11.7585 105.67 11.3133 106.03 11.079C106.406 10.8291 106.86 10.7041 107.393 10.7041Z" fill="#1E1510"/>
<path d="M119.024 18.9988H123.462V21.506H119.024V25.9111H116.511V21.506H112.072V18.9988H116.511V14.5469H119.024V18.9988Z" fill="#FA6440"/>
</svg>
