<svg width="125" height="40" viewBox="0 0 125 40" fill="none" xmlns="http://www.w3.org/2000/svg">
    <path
        d="M8.57708 39.1895C6.96507 39.6372 5.96998 38.6501 6.3545 36.985L10.6595 18.3428C11.044 16.6777 12.6625 14.965 14.2745 14.5174L36.4751 8.35298C38.0872 7.90537 39.0822 8.89238 38.6977 10.5575L34.3928 29.1997C34.0082 30.8648 32.3897 32.5776 30.7777 33.0252L8.57708 39.1895Z"
        fill="#1B1616" />
    <path
        d="M2.91882 31.647C1.3068 32.0946 0.311716 31.1076 0.696238 29.4425L5.00119 10.8003C5.38571 9.13519 7.00423 7.42247 8.61624 6.97486L30.8169 0.810475C32.4289 0.36287 33.424 1.34987 33.0395 3.01501L28.7345 21.6572C28.35 23.3223 26.7315 25.035 25.1194 25.4827L2.91882 31.647Z"
        fill="#FD5A1F" />
    <path
        d="M124.242 21.7723H119.673V26.4427H116.481V21.7723H111.911V18.8353H116.481V14.1648H119.673V18.8353H124.242V21.7723Z"
        fill="#FD5A1F" />
    <path
        d="M106.886 13.9482C106.29 13.9482 105.79 13.7636 105.387 13.3945C105 13.0093 104.807 12.5358 104.807 11.9741C104.807 11.4124 105 10.9469 105.387 10.5778C105.79 10.1926 106.29 10 106.886 10C107.483 10 107.974 10.1926 108.361 10.5778C108.764 10.9469 108.966 11.4124 108.966 11.9741C108.966 12.5358 108.764 13.0093 108.361 13.3945C107.974 13.7636 107.483 13.9482 106.886 13.9482ZM108.555 15.5371V28.8742H105.17V15.5371H108.555Z"
        fill="#1B1616" />
    <path d="M102.127 11.0593V28.8743H98.7425V11.0593H102.127Z" fill="#1B1616" />
    <path
        d="M96.574 21.9168C96.574 22.3983 96.5417 22.8316 96.4772 23.2168H86.6848C86.7654 24.1798 87.1039 24.9341 87.7003 25.4798C88.2967 26.0255 89.0302 26.2983 89.9006 26.2983C91.1579 26.2983 92.0525 25.7607 92.5845 24.6853H96.2355C95.8486 25.9693 95.1071 27.0286 94.011 27.8631C92.9149 28.6817 91.5689 29.0909 89.9731 29.0909C88.6836 29.0909 87.523 28.8101 86.4914 28.2483C85.4759 27.6705 84.678 26.86 84.0977 25.8168C83.5335 24.7736 83.2514 23.5699 83.2514 22.2057C83.2514 20.8254 83.5335 19.6137 84.0977 18.5705C84.6619 17.5272 85.4517 16.7248 86.4672 16.163C87.4827 15.6013 88.6514 15.3204 89.9731 15.3204C91.2466 15.3204 92.383 15.5933 93.3824 16.139C94.3979 16.6846 95.1796 17.463 95.7277 18.4742C96.2919 19.4692 96.574 20.6168 96.574 21.9168ZM93.068 20.9538C93.0519 20.0871 92.7376 19.397 92.1251 18.8834C91.5125 18.3538 90.763 18.089 89.8764 18.089C89.0382 18.089 88.329 18.3458 87.7487 18.8594C87.1845 19.3569 86.838 20.055 86.709 20.9538H93.068Z"
        fill="#1B1616" />
    <path
        d="M67.1669 22.1575C67.1669 20.8094 67.4328 19.6137 67.9648 18.5705C68.5128 17.5272 69.2543 16.7248 70.1892 16.163C71.1241 15.6013 72.1638 15.3204 73.3083 15.3204C74.1787 15.3204 75.0089 15.513 75.7987 15.8982C76.5885 16.2674 77.2172 16.7649 77.6847 17.3908V11.0593H81.118V28.8743H77.6847V26.9002C77.2656 27.5582 76.6772 28.0878 75.9196 28.4891C75.162 28.8903 74.2835 29.0909 73.2841 29.0909C72.1558 29.0909 71.1241 28.802 70.1892 28.2242C69.2543 27.6465 68.5128 26.836 67.9648 25.7927C67.4328 24.7335 67.1669 23.5217 67.1669 22.1575ZM77.7088 22.2057C77.7088 21.3871 77.5476 20.689 77.2253 20.1112C76.9029 19.5174 76.4677 19.068 75.9196 18.7631C75.3715 18.4421 74.7832 18.2816 74.1545 18.2816C73.5259 18.2816 72.9456 18.434 72.4137 18.739C71.8817 19.0439 71.4465 19.4933 71.108 20.0871C70.7856 20.6649 70.6244 21.3551 70.6244 22.1575C70.6244 22.96 70.7856 23.6662 71.108 24.2761C71.4465 24.8699 71.8817 25.3273 72.4137 25.6483C72.9617 25.9693 73.542 26.1298 74.1545 26.1298C74.7832 26.1298 75.3715 25.9773 75.9196 25.6724C76.4677 25.3514 76.9029 24.902 77.2253 24.3242C77.5476 23.7304 77.7088 23.0242 77.7088 22.2057Z"
        fill="#1B1616" />
    <path
        d="M63.3268 13.9482C62.7303 13.9482 62.2306 13.7636 61.8277 13.3945C61.4408 13.0093 61.2474 12.5358 61.2474 11.9741C61.2474 11.4124 61.4408 10.9469 61.8277 10.5778C62.2306 10.1926 62.7303 10 63.3268 10C63.9232 10 64.4148 10.1926 64.8017 10.5778C65.2046 10.9469 65.4061 11.4124 65.4061 11.9741C65.4061 12.5358 65.2046 13.0093 64.8017 13.3945C64.4148 13.7636 63.9232 13.9482 63.3268 13.9482ZM64.9951 15.5371V28.8742H61.6101V15.5371H64.9951Z"
        fill="#1B1616" />
    <path d="M59.512 12.0704V14.7908H52.4759V19.1001H57.8678V21.7723H52.4759V28.8742H49.0909V12.0704H59.512Z"
        fill="#1B1616" />
</svg>